# xmcd
#
# Track frame offsets: 
#        150
#        14540
#        27412
#        41492
#        51389
#        65719
#        77494
#        90728
#        102991
#        115648
#
# Disc length: 1682 seconds
#
# Revision: 0
# Processed by: cddbd v1.5.2PL0 Copyright (c) Steve Scherf et al.
# Submitted via: ExactAudioCopy v0.99pb4
#
DISCID=7e06900a
DTITLE=Honey and The Bees - Love
DYEAR=1970
DGENRE=Soul
TTITLE0=We Got To Stay Together
TTITLE1=Make Love To Me
TTITLE2=Please Have Mercy
TTITLE3=Help Me (Get Over My Used To Be Lover)
TTITLE4=It's Gonna Take A Miracle (Medley)
TTITLE5=Do You Understand
TTITLE6=Now That I Know
TTITLE7=What About Me
TTITLE8=I'll Spend My Life Loving You
TTITLE9=Love Is The Sky
EXTD=
EXTT0=
EXTT1=
EXTT2=
EXTT3=
EXTT4=
EXTT5=
EXTT6=
EXTT7=
EXTT8=
EXTT9=
PLAYORDER=
